<?xml version="1.0" standalone="no"?>
<!DOCTYPE svg PUBLIC "-//W3C//DTD SVG 20010904//EN"
 "http://www.w3.org/TR/2001/REC-SVG-20010904/DTD/svg10.dtd">
<svg version="1.0" xmlns="http://www.w3.org/2000/svg"
 width="512.000000pt" height="512.000000pt" viewBox="0 0 512.000000 512.000000"
 preserveAspectRatio="xMidYMid meet">
<metadata>
Created by potrace 1.11, written by Peter Selinger 2001-2013
</metadata>
<g transform="translate(0.000000,512.000000) scale(0.100000,-0.100000)"
fill="#000000" stroke="none">
<path d="M979 5100 c-130 -27 -196 -48 -288 -91 -297 -139 -527 -397 -631
-708 -61 -184 -59 -122 -57 -1766 2 -825 5 -1509 9 -1520 3 -11 9 -40 13 -63
11 -66 49 -181 89 -267 163 -353 516 -617 901 -673 63 -9 3036 -9 3090 0 521
89 903 465 999 983 13 69 15 288 13 1590 -1 831 -6 1524 -10 1540 -5 17 -12
49 -18 72 -73 329 -309 632 -614 790 -73 38 -208 89 -260 99 -11 2 -33 7 -50
10 -16 4 -41 9 -55 13 -14 3 -704 6 -1535 7 -1423 2 -1515 1 -1596 -16z"/>
</g>
</svg>
