<svg width="40" height="40" viewBox="0 0 40 40" fill="none" xmlns="http://www.w3.org/2000/svg">
  <path d="M32.1094 14.8437C32.1094 14.4531 31.9531 14.0625 31.6719 13.7812L29.5469 11.6562C29.2656 11.375 28.875 11.2187 28.4844 11.2187C28.0938 11.2187 27.7031 11.375 27.4219 11.6562L17.1719 21.9219L12.5781 17.3125C12.2969 17.0312 11.9063 16.875 11.5156 16.875C11.125 16.875 10.7344 17.0312 10.4531 17.3125L8.32813 19.4375C8.04688 19.7187 7.89063 20.1094 7.89063 20.5C7.89063 20.8906 8.04688 21.2812 8.32813 21.5625L13.9844 27.2187L16.1094 29.3437C16.3906 29.625 16.7813 29.7812 17.1719 29.7812C17.5625 29.7812 17.9531 29.625 18.2344 29.3437L20.3594 27.2187L31.6719 15.9062C31.9531 15.625 32.1094 15.2344 32.1094 14.8437Z" fill="black" />
</svg>