<svg width="3068" height="1000" viewBox="0 0 3068 1000" fill="none" xmlns="http://www.w3.org/2000/svg">
<path d="M2207.33 213.085C2224.9 213.085 2239.15 198.837 2239.15 181V85.7917C2239.15 50.6426 2210.65 22.1475 2175.5 22.1467V181.262C2175.5 198.837 2189.75 213.085 2207.33 213.085Z" fill="url(#paint0_linear)"/>
<path d="M2111.72 340.942V213.647C2146.87 213.647 2175.36 242.143 2175.36 277.293H2175.35V404.588C2140.21 404.588 2111.71 376.092 2111.71 340.942H2111.72Z" fill="url(#paint1_linear)"/>
<path d="M2302.79 85.6457C2302.79 50.4952 2331.28 22 2366.43 22V149.291C2348.86 149.291 2334.61 163.539 2334.61 181.114C2334.61 163.539 2320.36 149.291 2302.79 149.297V85.6457Z" fill="url(#paint2_linear)"/>
<path d="M2462.11 212.94C2479.69 212.94 2493.94 198.693 2493.93 180.855V85.6474C2493.94 50.4983 2465.44 22.0032 2430.29 22.0024V181.117C2430.29 198.693 2444.54 212.94 2462.11 212.94Z" fill="url(#paint3_linear)"/>
<path d="M2557.79 85.7902C2557.79 50.6396 2586.29 22.1445 2621.44 22.1445V149.436C2603.86 149.436 2589.61 163.683 2589.61 181.259C2589.61 163.683 2575.37 149.436 2557.79 149.441V85.7902Z" fill="url(#paint4_linear)"/>
<path d="M2717.12 213.085C2734.69 213.085 2748.94 198.837 2748.94 181V85.7917C2748.94 50.6426 2720.45 22.1475 2685.3 22.1467V181.262C2685.3 198.837 2699.54 213.085 2717.12 213.085Z" fill="url(#paint5_linear)"/>
<path d="M2812.58 85.6457C2812.58 50.4952 2841.07 22 2876.22 22V149.291C2858.65 149.291 2844.4 163.539 2844.4 181.114C2844.4 163.539 2830.15 149.291 2812.58 149.297V85.6457Z" fill="url(#paint6_linear)"/>
<path d="M2971.91 212.94C2989.48 212.94 3003.73 198.693 3003.73 180.855V85.6474C3003.73 50.4983 2975.23 22.0032 2940.08 22.0024V181.117C2940.08 198.693 2954.33 212.94 2971.91 212.94Z" fill="url(#paint7_linear)"/>
<path d="M2302.82 340.874V213.579C2267.67 213.579 2239.18 242.074 2239.18 277.225H2239.19V404.519C2274.33 404.519 2302.83 376.024 2302.83 340.874H2302.82Z" fill="url(#paint8_linear)"/>
<path d="M2366.54 341.013V213.719C2401.69 213.719 2430.18 242.214 2430.18 277.364H2430.18V404.659C2395.03 404.659 2366.53 376.164 2366.53 341.013H2366.54Z" fill="url(#paint9_linear)"/>
<path d="M2557.64 340.945V213.65C2522.49 213.65 2494 242.146 2494 277.296H2494.01V404.591C2529.15 404.591 2557.65 376.095 2557.65 340.945H2557.64Z" fill="url(#paint10_linear)"/>
<path d="M2621.4 341.013V213.719C2656.55 213.719 2685.04 242.214 2685.04 277.364H2685.04V404.659C2649.89 404.659 2621.39 376.164 2621.39 341.013H2621.4Z" fill="url(#paint11_linear)"/>
<path d="M2812.51 340.945V213.65C2777.36 213.65 2748.86 242.146 2748.86 277.296H2748.87V404.591C2784.02 404.591 2812.51 376.095 2812.51 340.945H2812.51Z" fill="url(#paint12_linear)"/>
<path d="M2876.3 340.942V213.647C2911.45 213.647 2939.94 242.143 2939.94 277.293H2939.94V404.588C2904.79 404.588 2876.29 376.092 2876.29 340.942H2876.3Z" fill="url(#paint13_linear)"/>
<path d="M2334.72 595.882C2352.29 595.882 2366.54 581.635 2366.54 564.06V436.767C2366.54 419.193 2352.29 404.945 2334.72 404.945C2317.14 404.945 2302.9 419.193 2302.9 436.771V564.064C2302.9 581.635 2317.14 595.882 2334.72 595.882Z" fill="url(#paint14_linear)"/>
<path d="M2589.58 595.882C2607.15 595.882 2621.4 581.635 2621.4 564.06V436.767C2621.4 419.193 2607.15 404.945 2589.58 404.945C2572 404.945 2557.76 419.193 2557.76 436.771V564.064C2557.76 581.635 2572 595.882 2589.58 595.882Z" fill="url(#paint15_linear)"/>
<path d="M2844.47 595.886C2862.05 595.886 2876.3 581.638 2876.3 564.063V436.77C2876.3 419.196 2862.05 404.949 2844.47 404.949C2826.9 404.949 2812.65 419.196 2812.65 436.774V564.067C2812.65 581.638 2826.9 595.886 2844.47 595.886Z" fill="url(#paint16_linear)"/>
<path d="M2175.46 468.591C2193.04 468.591 2207.28 454.343 2207.29 436.768C2207.29 454.343 2221.54 468.591 2239.11 468.591V532.237C2221.54 532.237 2207.29 546.484 2207.29 564.059C2207.29 546.484 2193.04 532.237 2175.47 532.237V468.591" fill="url(#paint17_linear)"/>
<path d="M2430.29 468.52C2447.87 468.52 2462.11 454.272 2462.12 436.697C2462.12 454.272 2476.37 468.52 2493.95 468.52V532.165C2476.37 532.165 2462.12 546.413 2462.12 563.988C2462.12 546.413 2447.87 532.165 2430.3 532.165V468.52" fill="url(#paint18_linear)"/>
<path d="M2685.21 468.662C2702.79 468.662 2717.04 454.415 2717.04 436.839C2717.05 454.415 2731.29 468.662 2748.87 468.662V532.308C2731.29 532.308 2717.04 546.555 2717.04 564.131C2717.04 546.555 2702.8 532.308 2685.22 532.308V468.662" fill="url(#paint19_linear)"/>
<path d="M2940.04 468.591C2957.62 468.591 2971.87 454.343 2971.87 436.768C2971.88 454.343 2986.12 468.591 3003.7 468.591V532.237C2986.12 532.237 2971.88 546.484 2971.88 564.059C2971.88 546.484 2957.63 532.237 2940.05 532.237V468.591" fill="url(#paint20_linear)"/>
<path d="M2111.75 659.954V787.249C2146.91 787.249 2175.4 758.754 2175.4 723.603H2175.39V596.309C2140.24 596.309 2111.75 624.804 2111.75 659.954H2111.75Z" fill="url(#paint21_linear)"/>
<path d="M2302.86 660.023V787.317C2267.71 787.317 2239.22 758.822 2239.22 723.671H2239.22V596.377C2274.37 596.377 2302.87 624.872 2302.87 660.023H2302.86Z" fill="url(#paint22_linear)"/>
<path d="M2366.58 659.883V787.177C2401.73 787.177 2430.22 758.682 2430.22 723.532H2430.21V596.237C2395.07 596.237 2366.57 624.732 2366.57 659.883H2366.58Z" fill="url(#paint23_linear)"/>
<path d="M2557.68 659.951V787.246C2522.53 787.246 2494.04 758.751 2494.04 723.6H2494.05V596.306C2529.19 596.306 2557.69 624.801 2557.69 659.951H2557.68Z" fill="url(#paint24_linear)"/>
<path d="M2621.44 659.883V787.177C2656.59 787.177 2685.08 758.682 2685.08 723.532H2685.08V596.237C2649.93 596.237 2621.43 624.732 2621.43 659.883H2621.44Z" fill="url(#paint25_linear)"/>
<path d="M2812.55 659.951V787.246C2777.39 787.246 2748.9 758.751 2748.9 723.6H2748.91V596.306C2784.06 596.306 2812.55 624.801 2812.55 659.951H2812.55Z" fill="url(#paint26_linear)"/>
<path d="M2876.34 659.954V787.249C2911.49 787.249 2939.98 758.754 2939.98 723.603H2939.98V596.309C2904.83 596.309 2876.33 624.804 2876.33 659.954H2876.34Z" fill="url(#paint27_linear)"/>
<path d="M2207.47 787.599C2225.05 787.599 2239.29 801.846 2239.29 819.683V914.892C2239.29 950.041 2210.8 978.536 2175.65 978.536V819.422C2175.65 801.846 2189.89 787.599 2207.47 787.599Z" fill="url(#paint28_linear)"/>
<path d="M2302.93 915.038C2302.93 950.188 2331.43 978.683 2366.58 978.683V851.392C2349 851.392 2334.75 837.145 2334.75 819.569C2334.75 837.145 2320.51 851.392 2302.93 851.387V915.038Z" fill="url(#paint29_linear)"/>
<path d="M2462.26 787.743C2479.83 787.743 2494.08 801.991 2494.08 819.828V915.036C2494.08 950.185 2465.58 978.68 2430.43 978.681V819.566C2430.43 801.991 2444.68 787.743 2462.26 787.743Z" fill="url(#paint30_linear)"/>
<path d="M2557.93 914.893C2557.93 950.044 2586.43 978.539 2621.58 978.539V851.248C2604 851.248 2589.76 837 2589.76 819.425C2589.76 837 2575.51 851.248 2557.93 851.242V914.893Z" fill="url(#paint31_linear)"/>
<path d="M2717.26 787.599C2734.84 787.599 2749.08 801.846 2749.08 819.683V914.892C2749.09 950.041 2720.59 978.536 2685.44 978.536V819.422C2685.44 801.846 2699.69 787.599 2717.26 787.599Z" fill="url(#paint32_linear)"/>
<path d="M2812.72 915.038C2812.72 950.188 2841.22 978.683 2876.37 978.683V851.392C2858.79 851.392 2844.54 837.145 2844.54 819.569C2844.54 837.145 2830.3 851.392 2812.72 851.387V915.038Z" fill="url(#paint33_linear)"/>
<path d="M2972.05 787.743C2989.62 787.743 3003.87 801.991 3003.87 819.828V915.036C3003.87 950.185 2975.38 978.68 2940.23 978.681V819.566C2940.23 801.991 2954.47 787.743 2972.05 787.743Z" fill="url(#paint34_linear)"/>
<path d="M2048 85.7903C2048 50.6397 2076.5 22.1446 2111.65 22.1445V149.436C2094.07 149.436 2079.82 163.683 2079.82 181.259C2079.82 163.683 2065.58 149.436 2048 149.441V85.7903Z" fill="url(#paint35_linear)"/>
<path d="M3067.41 340.874V213.579C3032.26 213.579 3003.76 242.074 3003.76 277.225H3003.77V404.519C3038.92 404.519 3067.41 376.024 3067.41 340.874H3067.41Z" fill="url(#paint36_linear)"/>
<path d="M2079.82 595.879C2097.4 595.879 2111.65 581.631 2111.65 564.056V436.763C2111.65 419.189 2097.4 404.942 2079.82 404.942C2062.25 404.942 2048 419.189 2048 436.767V564.06C2048 581.631 2062.25 595.879 2079.82 595.879Z" fill="url(#paint37_linear)"/>
<path d="M3067.45 660.023V787.317C3032.3 787.317 3003.8 758.822 3003.8 723.671H3003.81V596.377C3038.96 596.377 3067.45 624.872 3067.45 660.023H3067.45Z" fill="url(#paint38_linear)"/>
<path d="M2048.14 914.893C2048.14 950.044 2076.64 978.539 2111.79 978.539V851.248C2094.21 851.248 2079.97 837 2079.97 819.425C2079.97 837 2065.72 851.248 2048.14 851.242V914.893Z" fill="url(#paint39_linear)"/>
<path d="M159.327 213.085C176.902 213.085 191.15 198.837 191.148 181L191.148 85.7917C191.151 50.6426 162.655 22.1475 127.504 22.1467L127.504 181.262C127.504 198.837 141.752 213.085 159.327 213.085Z" fill="url(#paint40_linear)"/>
<path d="M63.7153 340.942V213.647C98.8658 213.647 127.361 242.143 127.361 277.293H127.354V404.588C92.2054 404.588 63.7102 376.092 63.7102 340.942H63.7153Z" fill="url(#paint41_linear)"/>
<path d="M254.787 85.6457C254.787 50.4952 283.282 22 318.433 22L318.433 149.291C300.858 149.291 286.61 163.539 286.61 181.114C286.61 163.539 272.362 149.291 254.787 149.297L254.787 85.6457Z" fill="url(#paint42_linear)"/>
<path d="M414.114 212.94C431.689 212.94 445.937 198.693 445.935 180.855L445.935 85.6474C445.938 50.4983 417.442 22.0032 382.291 22.0024L382.291 181.117C382.291 198.693 396.539 212.94 414.114 212.94Z" fill="url(#paint43_linear)"/>
<path d="M509.791 85.7902C509.791 50.6396 538.286 22.1445 573.437 22.1445L573.437 149.436C555.861 149.436 541.614 163.683 541.614 181.259C541.614 163.683 527.366 149.436 509.791 149.441L509.791 85.7902Z" fill="url(#paint44_linear)"/>
<path d="M669.118 213.085C686.693 213.085 700.941 198.837 700.939 181L700.939 85.7917C700.942 50.6426 672.446 22.1475 637.295 22.1467L637.295 181.262C637.295 198.837 651.543 213.085 669.118 213.085Z" fill="url(#paint45_linear)"/>
<path d="M764.578 85.6457C764.578 50.4952 793.073 22 828.224 22L828.224 149.291C810.649 149.291 796.401 163.539 796.401 181.114C796.401 163.539 782.153 149.291 764.578 149.297L764.578 85.6457Z" fill="url(#paint46_linear)"/>
<path d="M923.905 212.94C941.48 212.94 955.728 198.693 955.726 180.855L955.726 85.6474C955.729 50.4983 927.233 22.0032 892.082 22.0024L892.082 181.117C892.082 198.693 906.33 212.94 923.905 212.94Z" fill="url(#paint47_linear)"/>
<path d="M254.824 340.874V213.579C219.673 213.579 191.178 242.074 191.178 277.225H191.185V404.519C226.333 404.519 254.829 376.024 254.829 340.874H254.824Z" fill="url(#paint48_linear)"/>
<path d="M318.537 341.013V213.719C353.687 213.719 382.182 242.214 382.182 277.364H382.175V404.659C347.027 404.659 318.532 376.164 318.532 341.013H318.537Z" fill="url(#paint49_linear)"/>
<path d="M509.645 340.945V213.65C474.494 213.65 445.999 242.146 445.999 277.296H446.006V404.591C481.155 404.591 509.65 376.095 509.65 340.945H509.645Z" fill="url(#paint50_linear)"/>
<path d="M573.398 341.013V213.719C608.548 213.719 637.043 242.214 637.043 277.364H637.036V404.659C601.888 404.659 573.392 376.164 573.392 341.013H573.398Z" fill="url(#paint51_linear)"/>
<path d="M764.506 340.945V213.65C729.355 213.65 700.86 242.146 700.86 277.296H700.867V404.591C736.016 404.591 764.511 376.095 764.511 340.945H764.506Z" fill="url(#paint52_linear)"/>
<path d="M828.298 340.942V213.647C863.449 213.647 891.944 242.143 891.944 277.293H891.937V404.588C856.788 404.588 828.293 376.092 828.293 340.942H828.298Z" fill="url(#paint53_linear)"/>
<path d="M286.718 595.882C304.294 595.882 318.541 581.635 318.541 564.06V436.767C318.541 419.193 304.294 404.945 286.718 404.945C269.143 404.945 254.896 419.193 254.896 436.771V564.064C254.896 581.635 269.143 595.882 286.718 595.882Z" fill="url(#paint54_linear)"/>
<path d="M541.579 595.882C559.154 595.882 573.402 581.635 573.402 564.06V436.767C573.402 419.193 559.154 404.945 541.579 404.945C524.004 404.945 509.756 419.193 509.756 436.771V564.064C509.756 581.635 524.004 595.882 541.579 595.882Z" fill="url(#paint55_linear)"/>
<path d="M796.475 595.886C814.05 595.886 828.298 581.638 828.298 564.063V436.77C828.298 419.196 814.05 404.949 796.475 404.949C778.9 404.949 764.652 419.196 764.652 436.774V564.067C764.652 581.638 778.9 595.886 796.475 595.886Z" fill="url(#paint56_linear)"/>
<path d="M127.461 468.591C145.036 468.591 159.284 454.343 159.288 436.768C159.292 454.343 173.54 468.591 191.115 468.591V532.237C173.54 532.237 159.292 546.484 159.292 564.059C159.292 546.484 145.045 532.237 127.469 532.237V468.591" fill="url(#paint57_linear)"/>
<path d="M382.291 468.52C399.866 468.52 414.114 454.272 414.118 436.697C414.122 454.272 428.37 468.52 445.945 468.52V532.165C428.37 532.165 414.122 546.413 414.122 563.988C414.122 546.413 399.875 532.165 382.299 532.165V468.52" fill="url(#paint58_linear)"/>
<path d="M637.214 468.662C654.789 468.662 669.037 454.415 669.041 436.839C669.045 454.415 683.292 468.662 700.868 468.662V532.308C683.292 532.308 669.045 546.555 669.045 564.131C669.045 546.555 654.797 532.308 637.222 532.308V468.662" fill="url(#paint59_linear)"/>
<path d="M892.044 468.591C909.619 468.591 923.867 454.343 923.871 436.768C923.875 454.343 938.123 468.591 955.698 468.591V532.237C938.123 532.237 923.875 546.484 923.875 564.059C923.875 546.484 909.627 532.237 892.052 532.237V468.591" fill="url(#paint60_linear)"/>
<path d="M63.7546 659.954V787.249C98.9051 787.249 127.4 758.754 127.4 723.603H127.393V596.309C92.2447 596.309 63.7496 624.804 63.7496 659.954H63.7546Z" fill="url(#paint61_linear)"/>
<path d="M254.863 660.023V787.317C219.712 787.317 191.217 758.822 191.217 723.671H191.224V596.377C226.373 596.377 254.868 624.872 254.868 660.023H254.863Z" fill="url(#paint62_linear)"/>
<path d="M318.576 659.883V787.177C353.727 787.177 382.222 758.682 382.222 723.532H382.215V596.237C347.066 596.237 318.571 624.732 318.571 659.883H318.576Z" fill="url(#paint63_linear)"/>
<path d="M509.684 659.951V787.246C474.534 787.246 446.039 758.751 446.039 723.6H446.046V596.306C481.194 596.306 509.689 624.801 509.689 659.951H509.684Z" fill="url(#paint64_linear)"/>
<path d="M573.437 659.883V787.177C608.587 787.177 637.082 758.682 637.082 723.532H637.075V596.237C601.927 596.237 573.432 624.732 573.432 659.883H573.437Z" fill="url(#paint65_linear)"/>
<path d="M764.545 659.951V787.246C729.395 787.246 700.9 758.751 700.9 723.6H700.907V596.306C736.055 596.306 764.55 624.801 764.55 659.951H764.545Z" fill="url(#paint66_linear)"/>
<path d="M828.338 659.954V787.249C863.488 787.249 891.983 758.754 891.983 723.603H891.976V596.309C856.828 596.309 828.333 624.804 828.333 659.954H828.338Z" fill="url(#paint67_linear)"/>
<path d="M159.47 787.599C177.046 787.599 191.293 801.846 191.291 819.683L191.291 914.892C191.295 950.041 162.798 978.536 127.647 978.536L127.647 819.422C127.647 801.846 141.895 787.599 159.47 787.599Z" fill="url(#paint68_linear)"/>
<path d="M254.93 915.038C254.93 950.188 283.425 978.683 318.576 978.683L318.576 851.392C301.001 851.392 286.753 837.145 286.753 819.569C286.753 837.145 272.506 851.392 254.93 851.387L254.93 915.038Z" fill="url(#paint69_linear)"/>
<path d="M414.257 787.743C431.833 787.743 446.08 801.991 446.078 819.828L446.078 915.036C446.082 950.185 417.585 978.68 382.434 978.681L382.434 819.566C382.434 801.991 396.682 787.743 414.257 787.743Z" fill="url(#paint70_linear)"/>
<path d="M509.934 914.893C509.934 950.044 538.429 978.539 573.58 978.539L573.58 851.248C556.005 851.248 541.757 837 541.757 819.425C541.757 837 527.51 851.248 509.934 851.242L509.934 914.893Z" fill="url(#paint71_linear)"/>
<path d="M669.261 787.599C686.837 787.599 701.084 801.846 701.082 819.683L701.082 914.892C701.086 950.041 672.589 978.536 637.438 978.536L637.438 819.422C637.438 801.846 651.686 787.599 669.261 787.599Z" fill="url(#paint72_linear)"/>
<path d="M764.721 915.038C764.721 950.188 793.217 978.683 828.367 978.683L828.367 851.392C810.792 851.392 796.544 837.145 796.544 819.569C796.544 837.145 782.297 851.392 764.721 851.387L764.721 915.038Z" fill="url(#paint73_linear)"/>
<path d="M924.048 787.743C941.624 787.743 955.871 801.991 955.869 819.828V915.036C955.873 950.185 927.376 978.68 892.225 978.681L892.225 819.566C892.225 801.991 906.473 787.743 924.048 787.743Z" fill="url(#paint74_linear)"/>
<path d="M8.65651e-05 85.7903C8.65651e-05 50.6397 28.4952 22.1446 63.6457 22.1445L63.6457 149.436C46.0704 149.436 31.8229 163.683 31.8229 181.259C31.8229 163.683 17.5753 149.436 0 149.441L8.65651e-05 85.7903Z" fill="url(#paint75_linear)"/>
<path d="M1019.41 340.874V213.579C984.256 213.579 955.761 242.074 955.761 277.225H955.768V404.519C990.916 404.519 1019.41 376.024 1019.41 340.874H1019.41Z" fill="url(#paint76_linear)"/>
<path d="M31.8228 595.879C49.3981 595.879 63.6457 581.631 63.6457 564.056V436.763C63.6457 419.189 49.3981 404.942 31.8228 404.942C14.2476 404.942 0 419.189 0 436.767V564.06C0 581.631 14.2476 595.879 31.8228 595.879Z" fill="url(#paint77_linear)"/>
<path d="M1019.45 660.023V787.317C984.295 787.317 955.8 758.822 955.8 723.671H955.807V596.377C990.956 596.377 1019.45 624.872 1019.45 660.023H1019.45Z" fill="url(#paint78_linear)"/>
<path d="M0.143336 914.893C0.143336 950.044 28.6385 978.539 63.789 978.539L63.7889 851.248C46.2136 851.248 31.9661 837 31.9661 819.425C31.9661 837 17.7186 851.248 0.14325 851.242L0.143336 914.893Z" fill="url(#paint79_linear)"/>
<path d="M1183.33 213.085C1200.9 213.085 1215.15 198.837 1215.15 181V85.7917C1215.15 50.6426 1186.65 22.1475 1151.5 22.1467V181.262C1151.5 198.837 1165.75 213.085 1183.33 213.085Z" fill="url(#paint80_linear)"/>
<path d="M1087.72 340.942V213.647C1122.87 213.647 1151.36 242.143 1151.36 277.293H1151.35V404.588C1116.21 404.588 1087.71 376.092 1087.71 340.942H1087.72Z" fill="url(#paint81_linear)"/>
<path d="M1278.79 85.6457C1278.79 50.4952 1307.28 22 1342.43 22V149.291C1324.86 149.291 1310.61 163.539 1310.61 181.114C1310.61 163.539 1296.36 149.291 1278.79 149.297L1278.79 85.6457Z" fill="url(#paint82_linear)"/>
<path d="M1438.11 212.94C1455.69 212.94 1469.94 198.693 1469.93 180.855V85.6474C1469.94 50.4983 1441.44 22.0032 1406.29 22.0024L1406.29 181.117C1406.29 198.693 1420.54 212.94 1438.11 212.94Z" fill="url(#paint83_linear)"/>
<path d="M1533.79 85.7902C1533.79 50.6396 1562.29 22.1445 1597.44 22.1445V149.436C1579.86 149.436 1565.61 163.683 1565.61 181.259C1565.61 163.683 1551.37 149.436 1533.79 149.441L1533.79 85.7902Z" fill="url(#paint84_linear)"/>
<path d="M1693.12 213.085C1710.69 213.085 1724.94 198.837 1724.94 181V85.7917C1724.94 50.6426 1696.45 22.1475 1661.3 22.1467V181.262C1661.3 198.837 1675.54 213.085 1693.12 213.085Z" fill="url(#paint85_linear)"/>
<path d="M1788.58 85.6457C1788.58 50.4952 1817.07 22 1852.22 22V149.291C1834.65 149.291 1820.4 163.539 1820.4 181.114C1820.4 163.539 1806.15 149.291 1788.58 149.297L1788.58 85.6457Z" fill="url(#paint86_linear)"/>
<path d="M1947.91 212.94C1965.48 212.94 1979.73 198.693 1979.73 180.855V85.6474C1979.73 50.4983 1951.23 22.0032 1916.08 22.0024L1916.08 181.117C1916.08 198.693 1930.33 212.94 1947.91 212.94Z" fill="url(#paint87_linear)"/>
<path d="M1278.82 340.874V213.579C1243.67 213.579 1215.18 242.074 1215.18 277.225H1215.19V404.519C1250.33 404.519 1278.83 376.024 1278.83 340.874H1278.82Z" fill="url(#paint88_linear)"/>
<path d="M1342.54 341.013V213.719C1377.69 213.719 1406.18 242.214 1406.18 277.364H1406.18V404.659C1371.03 404.659 1342.53 376.164 1342.53 341.013H1342.54Z" fill="url(#paint89_linear)"/>
<path d="M1533.64 340.945V213.65C1498.49 213.65 1470 242.146 1470 277.296H1470.01V404.591C1505.15 404.591 1533.65 376.095 1533.65 340.945H1533.64Z" fill="url(#paint90_linear)"/>
<path d="M1597.4 341.013V213.719C1632.55 213.719 1661.04 242.214 1661.04 277.364H1661.04V404.659C1625.89 404.659 1597.39 376.164 1597.39 341.013H1597.4Z" fill="url(#paint91_linear)"/>
<path d="M1788.51 340.945V213.65C1753.36 213.65 1724.86 242.146 1724.86 277.296H1724.87V404.591C1760.02 404.591 1788.51 376.095 1788.51 340.945H1788.51Z" fill="url(#paint92_linear)"/>
<path d="M1852.3 340.942V213.647C1887.45 213.647 1915.94 242.143 1915.94 277.293H1915.94V404.588C1880.79 404.588 1852.29 376.092 1852.29 340.942H1852.3Z" fill="url(#paint93_linear)"/>
<path d="M1310.72 595.882C1328.29 595.882 1342.54 581.635 1342.54 564.06V436.767C1342.54 419.193 1328.29 404.945 1310.72 404.945C1293.14 404.945 1278.9 419.193 1278.9 436.771V564.064C1278.9 581.635 1293.14 595.882 1310.72 595.882Z" fill="url(#paint94_linear)"/>
<path d="M1565.58 595.882C1583.15 595.882 1597.4 581.635 1597.4 564.06V436.767C1597.4 419.193 1583.15 404.945 1565.58 404.945C1548 404.945 1533.76 419.193 1533.76 436.771V564.064C1533.76 581.635 1548 595.882 1565.58 595.882Z" fill="url(#paint95_linear)"/>
<path d="M1820.47 595.886C1838.05 595.886 1852.3 581.638 1852.3 564.063V436.77C1852.3 419.196 1838.05 404.949 1820.47 404.949C1802.9 404.949 1788.65 419.196 1788.65 436.774V564.067C1788.65 581.638 1802.9 595.886 1820.47 595.886Z" fill="url(#paint96_linear)"/>
<path d="M1151.46 468.591C1169.04 468.591 1183.28 454.343 1183.29 436.768C1183.29 454.343 1197.54 468.591 1215.11 468.591V532.237C1197.54 532.237 1183.29 546.484 1183.29 564.059C1183.29 546.484 1169.04 532.237 1151.47 532.237V468.591" fill="url(#paint97_linear)"/>
<path d="M1406.29 468.52C1423.87 468.52 1438.11 454.272 1438.12 436.697C1438.12 454.272 1452.37 468.52 1469.95 468.52V532.165C1452.37 532.165 1438.12 546.413 1438.12 563.988C1438.12 546.413 1423.87 532.165 1406.3 532.165V468.52" fill="url(#paint98_linear)"/>
<path d="M1661.21 468.662C1678.79 468.662 1693.04 454.415 1693.04 436.839C1693.04 454.415 1707.29 468.662 1724.87 468.662V532.308C1707.29 532.308 1693.04 546.555 1693.04 564.131C1693.04 546.555 1678.8 532.308 1661.22 532.308V468.662" fill="url(#paint99_linear)"/>
<path d="M1916.04 468.591C1933.62 468.591 1947.87 454.343 1947.87 436.768C1947.88 454.343 1962.12 468.591 1979.7 468.591V532.237C1962.12 532.237 1947.88 546.484 1947.88 564.059C1947.88 546.484 1933.63 532.237 1916.05 532.237V468.591" fill="url(#paint100_linear)"/>
<path d="M1087.75 659.954V787.249C1122.91 787.249 1151.4 758.754 1151.4 723.603H1151.39V596.309C1116.24 596.309 1087.75 624.804 1087.75 659.954H1087.75Z" fill="url(#paint101_linear)"/>
<path d="M1278.86 660.023V787.317C1243.71 787.317 1215.22 758.822 1215.22 723.671H1215.22V596.377C1250.37 596.377 1278.87 624.872 1278.87 660.023H1278.86Z" fill="url(#paint102_linear)"/>
<path d="M1342.58 659.883V787.177C1377.73 787.177 1406.22 758.682 1406.22 723.532H1406.21V596.237C1371.07 596.237 1342.57 624.732 1342.57 659.883H1342.58Z" fill="url(#paint103_linear)"/>
<path d="M1533.68 659.951V787.246C1498.53 787.246 1470.04 758.751 1470.04 723.6H1470.05V596.306C1505.19 596.306 1533.69 624.801 1533.69 659.951H1533.68Z" fill="url(#paint104_linear)"/>
<path d="M1597.44 659.883V787.177C1632.59 787.177 1661.08 758.682 1661.08 723.532H1661.08V596.237C1625.93 596.237 1597.43 624.732 1597.43 659.883H1597.44Z" fill="url(#paint105_linear)"/>
<path d="M1788.55 659.951V787.246C1753.39 787.246 1724.9 758.751 1724.9 723.6H1724.91V596.306C1760.06 596.306 1788.55 624.801 1788.55 659.951H1788.55Z" fill="url(#paint106_linear)"/>
<path d="M1852.34 659.954V787.249C1887.49 787.249 1915.98 758.754 1915.98 723.603H1915.98V596.309C1880.83 596.309 1852.33 624.804 1852.33 659.954H1852.34Z" fill="url(#paint107_linear)"/>
<path d="M1183.47 787.599C1201.05 787.599 1215.29 801.846 1215.29 819.683V914.892C1215.29 950.041 1186.8 978.536 1151.65 978.536V819.422C1151.65 801.846 1165.9 787.599 1183.47 787.599Z" fill="url(#paint108_linear)"/>
<path d="M1278.93 915.038C1278.93 950.188 1307.43 978.683 1342.58 978.683V851.392C1325 851.392 1310.75 837.145 1310.75 819.569C1310.75 837.145 1296.51 851.392 1278.93 851.387V915.038Z" fill="url(#paint109_linear)"/>
<path d="M1438.26 787.743C1455.83 787.743 1470.08 801.991 1470.08 819.828L1470.08 915.036C1470.08 950.185 1441.58 978.68 1406.43 978.681L1406.43 819.566C1406.43 801.991 1420.68 787.743 1438.26 787.743Z" fill="url(#paint110_linear)"/>
<path d="M1533.93 914.893C1533.93 950.044 1562.43 978.539 1597.58 978.539V851.248C1580 851.248 1565.76 837 1565.76 819.425C1565.76 837 1551.51 851.248 1533.93 851.242L1533.93 914.893Z" fill="url(#paint111_linear)"/>
<path d="M1693.26 787.599C1710.84 787.599 1725.08 801.846 1725.08 819.683V914.892C1725.09 950.041 1696.59 978.536 1661.44 978.536V819.422C1661.44 801.846 1675.69 787.599 1693.26 787.599Z" fill="url(#paint112_linear)"/>
<path d="M1788.72 915.038C1788.72 950.188 1817.22 978.683 1852.37 978.683L1852.37 851.392C1834.79 851.392 1820.54 837.145 1820.54 819.569C1820.54 837.145 1806.3 851.392 1788.72 851.387L1788.72 915.038Z" fill="url(#paint113_linear)"/>
<path d="M1948.05 787.743C1965.62 787.743 1979.87 801.991 1979.87 819.828V915.036C1979.87 950.185 1951.38 978.68 1916.23 978.681L1916.23 819.566C1916.23 801.991 1930.47 787.743 1948.05 787.743Z" fill="url(#paint114_linear)"/>
<path d="M1024 85.7903C1024 50.6397 1052.5 22.1446 1087.65 22.1445V149.436C1070.07 149.436 1055.82 163.683 1055.82 181.259C1055.82 163.683 1041.58 149.436 1024 149.441L1024 85.7903Z" fill="url(#paint115_linear)"/>
<path d="M2043.41 340.874V213.579C2008.26 213.579 1979.76 242.074 1979.76 277.225H1979.77V404.519C2014.92 404.519 2043.41 376.024 2043.41 340.874H2043.41Z" fill="url(#paint116_linear)"/>
<path d="M1055.82 595.879C1073.4 595.879 1087.65 581.631 1087.65 564.056V436.763C1087.65 419.189 1073.4 404.942 1055.82 404.942C1038.25 404.942 1024 419.189 1024 436.767V564.06C1024 581.631 1038.25 595.879 1055.82 595.879Z" fill="url(#paint117_linear)"/>
<path d="M2043.45 660.023V787.317C2008.3 787.317 1979.8 758.822 1979.8 723.671H1979.81V596.377C2014.96 596.377 2043.45 624.872 2043.45 660.023H2043.45Z" fill="url(#paint118_linear)"/>
<path d="M1024.14 914.893C1024.14 950.044 1052.64 978.539 1087.79 978.539L1087.79 851.248C1070.21 851.248 1055.97 837 1055.97 819.425C1055.97 837 1041.72 851.248 1024.14 851.242L1024.14 914.893Z" fill="url(#paint119_linear)"/>
<defs>
<linearGradient id="paint0_linear" x1="813.624" y1="500.331" x2="2253.12" y2="500.331" gradientUnits="userSpaceOnUse">
<stop stop-color="#F08C36"/>
<stop offset="0.500609" stop-color="#F0AE36"/>
<stop offset="1" stop-color="#F08C36"/>
</linearGradient>
<linearGradient id="paint1_linear" x1="813.624" y1="500.331" x2="2253.12" y2="500.331" gradientUnits="userSpaceOnUse">
<stop stop-color="#F08C36"/>
<stop offset="0.500609" stop-color="#F0AE36"/>
<stop offset="1" stop-color="#F08C36"/>
</linearGradient>
<linearGradient id="paint2_linear" x1="813.624" y1="500.331" x2="2253.12" y2="500.331" gradientUnits="userSpaceOnUse">
<stop stop-color="#F08C36"/>
<stop offset="0.500609" stop-color="#F0AE36"/>
<stop offset="1" stop-color="#F08C36"/>
</linearGradient>
<linearGradient id="paint3_linear" x1="813.624" y1="500.331" x2="2253.12" y2="500.331" gradientUnits="userSpaceOnUse">
<stop stop-color="#F08C36"/>
<stop offset="0.500609" stop-color="#F0AE36"/>
<stop offset="1" stop-color="#F08C36"/>
</linearGradient>
<linearGradient id="paint4_linear" x1="813.624" y1="500.331" x2="2253.12" y2="500.331" gradientUnits="userSpaceOnUse">
<stop stop-color="#F08C36"/>
<stop offset="0.500609" stop-color="#F0AE36"/>
<stop offset="1" stop-color="#F08C36"/>
</linearGradient>
<linearGradient id="paint5_linear" x1="813.624" y1="500.331" x2="2253.12" y2="500.331" gradientUnits="userSpaceOnUse">
<stop stop-color="#F08C36"/>
<stop offset="0.500609" stop-color="#F0AE36"/>
<stop offset="1" stop-color="#F08C36"/>
</linearGradient>
<linearGradient id="paint6_linear" x1="813.624" y1="500.331" x2="2253.12" y2="500.331" gradientUnits="userSpaceOnUse">
<stop stop-color="#F08C36"/>
<stop offset="0.500609" stop-color="#F0AE36"/>
<stop offset="1" stop-color="#F08C36"/>
</linearGradient>
<linearGradient id="paint7_linear" x1="813.624" y1="500.331" x2="2253.12" y2="500.331" gradientUnits="userSpaceOnUse">
<stop stop-color="#F08C36"/>
<stop offset="0.500609" stop-color="#F0AE36"/>
<stop offset="1" stop-color="#F08C36"/>
</linearGradient>
<linearGradient id="paint8_linear" x1="813.624" y1="500.331" x2="2253.12" y2="500.331" gradientUnits="userSpaceOnUse">
<stop stop-color="#F08C36"/>
<stop offset="0.500609" stop-color="#F0AE36"/>
<stop offset="1" stop-color="#F08C36"/>
</linearGradient>
<linearGradient id="paint9_linear" x1="813.624" y1="500.331" x2="2253.12" y2="500.331" gradientUnits="userSpaceOnUse">
<stop stop-color="#F08C36"/>
<stop offset="0.500609" stop-color="#F0AE36"/>
<stop offset="1" stop-color="#F08C36"/>
</linearGradient>
<linearGradient id="paint10_linear" x1="813.624" y1="500.331" x2="2253.12" y2="500.331" gradientUnits="userSpaceOnUse">
<stop stop-color="#F08C36"/>
<stop offset="0.500609" stop-color="#F0AE36"/>
<stop offset="1" stop-color="#F08C36"/>
</linearGradient>
<linearGradient id="paint11_linear" x1="813.624" y1="500.331" x2="2253.12" y2="500.331" gradientUnits="userSpaceOnUse">
<stop stop-color="#F08C36"/>
<stop offset="0.500609" stop-color="#F0AE36"/>
<stop offset="1" stop-color="#F08C36"/>
</linearGradient>
<linearGradient id="paint12_linear" x1="813.624" y1="500.331" x2="2253.12" y2="500.331" gradientUnits="userSpaceOnUse">
<stop stop-color="#F08C36"/>
<stop offset="0.500609" stop-color="#F0AE36"/>
<stop offset="1" stop-color="#F08C36"/>
</linearGradient>
<linearGradient id="paint13_linear" x1="813.624" y1="500.331" x2="2253.12" y2="500.331" gradientUnits="userSpaceOnUse">
<stop stop-color="#F08C36"/>
<stop offset="0.500609" stop-color="#F0AE36"/>
<stop offset="1" stop-color="#F08C36"/>
</linearGradient>
<linearGradient id="paint14_linear" x1="813.624" y1="500.331" x2="2253.12" y2="500.331" gradientUnits="userSpaceOnUse">
<stop stop-color="#F08C36"/>
<stop offset="0.500609" stop-color="#F0AE36"/>
<stop offset="1" stop-color="#F08C36"/>
</linearGradient>
<linearGradient id="paint15_linear" x1="813.624" y1="500.331" x2="2253.12" y2="500.331" gradientUnits="userSpaceOnUse">
<stop stop-color="#F08C36"/>
<stop offset="0.500609" stop-color="#F0AE36"/>
<stop offset="1" stop-color="#F08C36"/>
</linearGradient>
<linearGradient id="paint16_linear" x1="813.624" y1="500.331" x2="2253.12" y2="500.331" gradientUnits="userSpaceOnUse">
<stop stop-color="#F08C36"/>
<stop offset="0.500609" stop-color="#F0AE36"/>
<stop offset="1" stop-color="#F08C36"/>
</linearGradient>
<linearGradient id="paint17_linear" x1="813.624" y1="500.331" x2="2253.12" y2="500.331" gradientUnits="userSpaceOnUse">
<stop stop-color="#F08C36"/>
<stop offset="0.500609" stop-color="#F0AE36"/>
<stop offset="1" stop-color="#F08C36"/>
</linearGradient>
<linearGradient id="paint18_linear" x1="813.624" y1="500.331" x2="2253.12" y2="500.331" gradientUnits="userSpaceOnUse">
<stop stop-color="#F08C36"/>
<stop offset="0.500609" stop-color="#F0AE36"/>
<stop offset="1" stop-color="#F08C36"/>
</linearGradient>
<linearGradient id="paint19_linear" x1="813.624" y1="500.331" x2="2253.12" y2="500.331" gradientUnits="userSpaceOnUse">
<stop stop-color="#F08C36"/>
<stop offset="0.500609" stop-color="#F0AE36"/>
<stop offset="1" stop-color="#F08C36"/>
</linearGradient>
<linearGradient id="paint20_linear" x1="813.624" y1="500.331" x2="2253.12" y2="500.331" gradientUnits="userSpaceOnUse">
<stop stop-color="#F08C36"/>
<stop offset="0.500609" stop-color="#F0AE36"/>
<stop offset="1" stop-color="#F08C36"/>
</linearGradient>
<linearGradient id="paint21_linear" x1="813.624" y1="500.331" x2="2253.12" y2="500.331" gradientUnits="userSpaceOnUse">
<stop stop-color="#F08C36"/>
<stop offset="0.500609" stop-color="#F0AE36"/>
<stop offset="1" stop-color="#F08C36"/>
</linearGradient>
<linearGradient id="paint22_linear" x1="813.624" y1="500.331" x2="2253.12" y2="500.331" gradientUnits="userSpaceOnUse">
<stop stop-color="#F08C36"/>
<stop offset="0.500609" stop-color="#F0AE36"/>
<stop offset="1" stop-color="#F08C36"/>
</linearGradient>
<linearGradient id="paint23_linear" x1="813.624" y1="500.331" x2="2253.12" y2="500.331" gradientUnits="userSpaceOnUse">
<stop stop-color="#F08C36"/>
<stop offset="0.500609" stop-color="#F0AE36"/>
<stop offset="1" stop-color="#F08C36"/>
</linearGradient>
<linearGradient id="paint24_linear" x1="813.624" y1="500.331" x2="2253.12" y2="500.331" gradientUnits="userSpaceOnUse">
<stop stop-color="#F08C36"/>
<stop offset="0.500609" stop-color="#F0AE36"/>
<stop offset="1" stop-color="#F08C36"/>
</linearGradient>
<linearGradient id="paint25_linear" x1="813.624" y1="500.331" x2="2253.12" y2="500.331" gradientUnits="userSpaceOnUse">
<stop stop-color="#F08C36"/>
<stop offset="0.500609" stop-color="#F0AE36"/>
<stop offset="1" stop-color="#F08C36"/>
</linearGradient>
<linearGradient id="paint26_linear" x1="813.624" y1="500.331" x2="2253.12" y2="500.331" gradientUnits="userSpaceOnUse">
<stop stop-color="#F08C36"/>
<stop offset="0.500609" stop-color="#F0AE36"/>
<stop offset="1" stop-color="#F08C36"/>
</linearGradient>
<linearGradient id="paint27_linear" x1="813.624" y1="500.331" x2="2253.12" y2="500.331" gradientUnits="userSpaceOnUse">
<stop stop-color="#F08C36"/>
<stop offset="0.500609" stop-color="#F0AE36"/>
<stop offset="1" stop-color="#F08C36"/>
</linearGradient>
<linearGradient id="paint28_linear" x1="813.624" y1="500.331" x2="2253.12" y2="500.331" gradientUnits="userSpaceOnUse">
<stop stop-color="#F08C36"/>
<stop offset="0.500609" stop-color="#F0AE36"/>
<stop offset="1" stop-color="#F08C36"/>
</linearGradient>
<linearGradient id="paint29_linear" x1="813.624" y1="500.331" x2="2253.12" y2="500.331" gradientUnits="userSpaceOnUse">
<stop stop-color="#F08C36"/>
<stop offset="0.500609" stop-color="#F0AE36"/>
<stop offset="1" stop-color="#F08C36"/>
</linearGradient>
<linearGradient id="paint30_linear" x1="813.624" y1="500.331" x2="2253.12" y2="500.331" gradientUnits="userSpaceOnUse">
<stop stop-color="#F08C36"/>
<stop offset="0.500609" stop-color="#F0AE36"/>
<stop offset="1" stop-color="#F08C36"/>
</linearGradient>
<linearGradient id="paint31_linear" x1="813.624" y1="500.331" x2="2253.12" y2="500.331" gradientUnits="userSpaceOnUse">
<stop stop-color="#F08C36"/>
<stop offset="0.500609" stop-color="#F0AE36"/>
<stop offset="1" stop-color="#F08C36"/>
</linearGradient>
<linearGradient id="paint32_linear" x1="813.624" y1="500.331" x2="2253.12" y2="500.331" gradientUnits="userSpaceOnUse">
<stop stop-color="#F08C36"/>
<stop offset="0.500609" stop-color="#F0AE36"/>
<stop offset="1" stop-color="#F08C36"/>
</linearGradient>
<linearGradient id="paint33_linear" x1="813.624" y1="500.331" x2="2253.12" y2="500.331" gradientUnits="userSpaceOnUse">
<stop stop-color="#F08C36"/>
<stop offset="0.500609" stop-color="#F0AE36"/>
<stop offset="1" stop-color="#F08C36"/>
</linearGradient>
<linearGradient id="paint34_linear" x1="813.624" y1="500.331" x2="2253.12" y2="500.331" gradientUnits="userSpaceOnUse">
<stop stop-color="#F08C36"/>
<stop offset="0.500609" stop-color="#F0AE36"/>
<stop offset="1" stop-color="#F08C36"/>
</linearGradient>
<linearGradient id="paint35_linear" x1="813.624" y1="500.331" x2="2253.12" y2="500.331" gradientUnits="userSpaceOnUse">
<stop stop-color="#F08C36"/>
<stop offset="0.500609" stop-color="#F0AE36"/>
<stop offset="1" stop-color="#F08C36"/>
</linearGradient>
<linearGradient id="paint36_linear" x1="813.624" y1="500.331" x2="2253.12" y2="500.331" gradientUnits="userSpaceOnUse">
<stop stop-color="#F08C36"/>
<stop offset="0.500609" stop-color="#F0AE36"/>
<stop offset="1" stop-color="#F08C36"/>
</linearGradient>
<linearGradient id="paint37_linear" x1="813.624" y1="500.331" x2="2253.12" y2="500.331" gradientUnits="userSpaceOnUse">
<stop stop-color="#F08C36"/>
<stop offset="0.500609" stop-color="#F0AE36"/>
<stop offset="1" stop-color="#F08C36"/>
</linearGradient>
<linearGradient id="paint38_linear" x1="813.624" y1="500.331" x2="2253.12" y2="500.331" gradientUnits="userSpaceOnUse">
<stop stop-color="#F08C36"/>
<stop offset="0.500609" stop-color="#F0AE36"/>
<stop offset="1" stop-color="#F08C36"/>
</linearGradient>
<linearGradient id="paint39_linear" x1="813.624" y1="500.331" x2="2253.12" y2="500.331" gradientUnits="userSpaceOnUse">
<stop stop-color="#F08C36"/>
<stop offset="0.500609" stop-color="#F0AE36"/>
<stop offset="1" stop-color="#F08C36"/>
</linearGradient>
<linearGradient id="paint40_linear" x1="813.624" y1="500.331" x2="2253.12" y2="500.331" gradientUnits="userSpaceOnUse">
<stop stop-color="#F08C36"/>
<stop offset="0.500609" stop-color="#F0AE36"/>
<stop offset="1" stop-color="#F08C36"/>
</linearGradient>
<linearGradient id="paint41_linear" x1="813.624" y1="500.331" x2="2253.12" y2="500.331" gradientUnits="userSpaceOnUse">
<stop stop-color="#F08C36"/>
<stop offset="0.500609" stop-color="#F0AE36"/>
<stop offset="1" stop-color="#F08C36"/>
</linearGradient>
<linearGradient id="paint42_linear" x1="813.624" y1="500.331" x2="2253.12" y2="500.331" gradientUnits="userSpaceOnUse">
<stop stop-color="#F08C36"/>
<stop offset="0.500609" stop-color="#F0AE36"/>
<stop offset="1" stop-color="#F08C36"/>
</linearGradient>
<linearGradient id="paint43_linear" x1="813.624" y1="500.331" x2="2253.12" y2="500.331" gradientUnits="userSpaceOnUse">
<stop stop-color="#F08C36"/>
<stop offset="0.500609" stop-color="#F0AE36"/>
<stop offset="1" stop-color="#F08C36"/>
</linearGradient>
<linearGradient id="paint44_linear" x1="813.624" y1="500.331" x2="2253.12" y2="500.331" gradientUnits="userSpaceOnUse">
<stop stop-color="#F08C36"/>
<stop offset="0.500609" stop-color="#F0AE36"/>
<stop offset="1" stop-color="#F08C36"/>
</linearGradient>
<linearGradient id="paint45_linear" x1="813.624" y1="500.331" x2="2253.12" y2="500.331" gradientUnits="userSpaceOnUse">
<stop stop-color="#F08C36"/>
<stop offset="0.500609" stop-color="#F0AE36"/>
<stop offset="1" stop-color="#F08C36"/>
</linearGradient>
<linearGradient id="paint46_linear" x1="813.624" y1="500.331" x2="2253.12" y2="500.331" gradientUnits="userSpaceOnUse">
<stop stop-color="#F08C36"/>
<stop offset="0.500609" stop-color="#F0AE36"/>
<stop offset="1" stop-color="#F08C36"/>
</linearGradient>
<linearGradient id="paint47_linear" x1="813.624" y1="500.331" x2="2253.12" y2="500.331" gradientUnits="userSpaceOnUse">
<stop stop-color="#F08C36"/>
<stop offset="0.500609" stop-color="#F0AE36"/>
<stop offset="1" stop-color="#F08C36"/>
</linearGradient>
<linearGradient id="paint48_linear" x1="813.624" y1="500.331" x2="2253.12" y2="500.331" gradientUnits="userSpaceOnUse">
<stop stop-color="#F08C36"/>
<stop offset="0.500609" stop-color="#F0AE36"/>
<stop offset="1" stop-color="#F08C36"/>
</linearGradient>
<linearGradient id="paint49_linear" x1="813.624" y1="500.331" x2="2253.12" y2="500.331" gradientUnits="userSpaceOnUse">
<stop stop-color="#F08C36"/>
<stop offset="0.500609" stop-color="#F0AE36"/>
<stop offset="1" stop-color="#F08C36"/>
</linearGradient>
<linearGradient id="paint50_linear" x1="813.624" y1="500.331" x2="2253.12" y2="500.331" gradientUnits="userSpaceOnUse">
<stop stop-color="#F08C36"/>
<stop offset="0.500609" stop-color="#F0AE36"/>
<stop offset="1" stop-color="#F08C36"/>
</linearGradient>
<linearGradient id="paint51_linear" x1="813.624" y1="500.331" x2="2253.12" y2="500.331" gradientUnits="userSpaceOnUse">
<stop stop-color="#F08C36"/>
<stop offset="0.500609" stop-color="#F0AE36"/>
<stop offset="1" stop-color="#F08C36"/>
</linearGradient>
<linearGradient id="paint52_linear" x1="813.624" y1="500.331" x2="2253.12" y2="500.331" gradientUnits="userSpaceOnUse">
<stop stop-color="#F08C36"/>
<stop offset="0.500609" stop-color="#F0AE36"/>
<stop offset="1" stop-color="#F08C36"/>
</linearGradient>
<linearGradient id="paint53_linear" x1="813.624" y1="500.331" x2="2253.12" y2="500.331" gradientUnits="userSpaceOnUse">
<stop stop-color="#F08C36"/>
<stop offset="0.500609" stop-color="#F0AE36"/>
<stop offset="1" stop-color="#F08C36"/>
</linearGradient>
<linearGradient id="paint54_linear" x1="813.624" y1="500.331" x2="2253.12" y2="500.331" gradientUnits="userSpaceOnUse">
<stop stop-color="#F08C36"/>
<stop offset="0.500609" stop-color="#F0AE36"/>
<stop offset="1" stop-color="#F08C36"/>
</linearGradient>
<linearGradient id="paint55_linear" x1="813.624" y1="500.331" x2="2253.12" y2="500.331" gradientUnits="userSpaceOnUse">
<stop stop-color="#F08C36"/>
<stop offset="0.500609" stop-color="#F0AE36"/>
<stop offset="1" stop-color="#F08C36"/>
</linearGradient>
<linearGradient id="paint56_linear" x1="813.624" y1="500.331" x2="2253.12" y2="500.331" gradientUnits="userSpaceOnUse">
<stop stop-color="#F08C36"/>
<stop offset="0.500609" stop-color="#F0AE36"/>
<stop offset="1" stop-color="#F08C36"/>
</linearGradient>
<linearGradient id="paint57_linear" x1="813.624" y1="500.331" x2="2253.12" y2="500.331" gradientUnits="userSpaceOnUse">
<stop stop-color="#F08C36"/>
<stop offset="0.500609" stop-color="#F0AE36"/>
<stop offset="1" stop-color="#F08C36"/>
</linearGradient>
<linearGradient id="paint58_linear" x1="813.624" y1="500.331" x2="2253.12" y2="500.331" gradientUnits="userSpaceOnUse">
<stop stop-color="#F08C36"/>
<stop offset="0.500609" stop-color="#F0AE36"/>
<stop offset="1" stop-color="#F08C36"/>
</linearGradient>
<linearGradient id="paint59_linear" x1="813.624" y1="500.331" x2="2253.12" y2="500.331" gradientUnits="userSpaceOnUse">
<stop stop-color="#F08C36"/>
<stop offset="0.500609" stop-color="#F0AE36"/>
<stop offset="1" stop-color="#F08C36"/>
</linearGradient>
<linearGradient id="paint60_linear" x1="813.624" y1="500.331" x2="2253.12" y2="500.331" gradientUnits="userSpaceOnUse">
<stop stop-color="#F08C36"/>
<stop offset="0.500609" stop-color="#F0AE36"/>
<stop offset="1" stop-color="#F08C36"/>
</linearGradient>
<linearGradient id="paint61_linear" x1="813.624" y1="500.331" x2="2253.12" y2="500.331" gradientUnits="userSpaceOnUse">
<stop stop-color="#F08C36"/>
<stop offset="0.500609" stop-color="#F0AE36"/>
<stop offset="1" stop-color="#F08C36"/>
</linearGradient>
<linearGradient id="paint62_linear" x1="813.624" y1="500.331" x2="2253.12" y2="500.331" gradientUnits="userSpaceOnUse">
<stop stop-color="#F08C36"/>
<stop offset="0.500609" stop-color="#F0AE36"/>
<stop offset="1" stop-color="#F08C36"/>
</linearGradient>
<linearGradient id="paint63_linear" x1="813.624" y1="500.331" x2="2253.12" y2="500.331" gradientUnits="userSpaceOnUse">
<stop stop-color="#F08C36"/>
<stop offset="0.500609" stop-color="#F0AE36"/>
<stop offset="1" stop-color="#F08C36"/>
</linearGradient>
<linearGradient id="paint64_linear" x1="813.624" y1="500.331" x2="2253.12" y2="500.331" gradientUnits="userSpaceOnUse">
<stop stop-color="#F08C36"/>
<stop offset="0.500609" stop-color="#F0AE36"/>
<stop offset="1" stop-color="#F08C36"/>
</linearGradient>
<linearGradient id="paint65_linear" x1="813.624" y1="500.331" x2="2253.12" y2="500.331" gradientUnits="userSpaceOnUse">
<stop stop-color="#F08C36"/>
<stop offset="0.500609" stop-color="#F0AE36"/>
<stop offset="1" stop-color="#F08C36"/>
</linearGradient>
<linearGradient id="paint66_linear" x1="813.624" y1="500.331" x2="2253.12" y2="500.331" gradientUnits="userSpaceOnUse">
<stop stop-color="#F08C36"/>
<stop offset="0.500609" stop-color="#F0AE36"/>
<stop offset="1" stop-color="#F08C36"/>
</linearGradient>
<linearGradient id="paint67_linear" x1="813.624" y1="500.331" x2="2253.12" y2="500.331" gradientUnits="userSpaceOnUse">
<stop stop-color="#F08C36"/>
<stop offset="0.500609" stop-color="#F0AE36"/>
<stop offset="1" stop-color="#F08C36"/>
</linearGradient>
<linearGradient id="paint68_linear" x1="813.624" y1="500.331" x2="2253.12" y2="500.331" gradientUnits="userSpaceOnUse">
<stop stop-color="#F08C36"/>
<stop offset="0.500609" stop-color="#F0AE36"/>
<stop offset="1" stop-color="#F08C36"/>
</linearGradient>
<linearGradient id="paint69_linear" x1="813.624" y1="500.331" x2="2253.12" y2="500.331" gradientUnits="userSpaceOnUse">
<stop stop-color="#F08C36"/>
<stop offset="0.500609" stop-color="#F0AE36"/>
<stop offset="1" stop-color="#F08C36"/>
</linearGradient>
<linearGradient id="paint70_linear" x1="813.624" y1="500.331" x2="2253.12" y2="500.331" gradientUnits="userSpaceOnUse">
<stop stop-color="#F08C36"/>
<stop offset="0.500609" stop-color="#F0AE36"/>
<stop offset="1" stop-color="#F08C36"/>
</linearGradient>
<linearGradient id="paint71_linear" x1="813.624" y1="500.331" x2="2253.12" y2="500.331" gradientUnits="userSpaceOnUse">
<stop stop-color="#F08C36"/>
<stop offset="0.500609" stop-color="#F0AE36"/>
<stop offset="1" stop-color="#F08C36"/>
</linearGradient>
<linearGradient id="paint72_linear" x1="813.624" y1="500.331" x2="2253.12" y2="500.331" gradientUnits="userSpaceOnUse">
<stop stop-color="#F08C36"/>
<stop offset="0.500609" stop-color="#F0AE36"/>
<stop offset="1" stop-color="#F08C36"/>
</linearGradient>
<linearGradient id="paint73_linear" x1="813.624" y1="500.331" x2="2253.12" y2="500.331" gradientUnits="userSpaceOnUse">
<stop stop-color="#F08C36"/>
<stop offset="0.500609" stop-color="#F0AE36"/>
<stop offset="1" stop-color="#F08C36"/>
</linearGradient>
<linearGradient id="paint74_linear" x1="813.624" y1="500.331" x2="2253.12" y2="500.331" gradientUnits="userSpaceOnUse">
<stop stop-color="#F08C36"/>
<stop offset="0.500609" stop-color="#F0AE36"/>
<stop offset="1" stop-color="#F08C36"/>
</linearGradient>
<linearGradient id="paint75_linear" x1="813.624" y1="500.331" x2="2253.12" y2="500.331" gradientUnits="userSpaceOnUse">
<stop stop-color="#F08C36"/>
<stop offset="0.500609" stop-color="#F0AE36"/>
<stop offset="1" stop-color="#F08C36"/>
</linearGradient>
<linearGradient id="paint76_linear" x1="813.624" y1="500.331" x2="2253.12" y2="500.331" gradientUnits="userSpaceOnUse">
<stop stop-color="#F08C36"/>
<stop offset="0.500609" stop-color="#F0AE36"/>
<stop offset="1" stop-color="#F08C36"/>
</linearGradient>
<linearGradient id="paint77_linear" x1="813.624" y1="500.331" x2="2253.12" y2="500.331" gradientUnits="userSpaceOnUse">
<stop stop-color="#F08C36"/>
<stop offset="0.500609" stop-color="#F0AE36"/>
<stop offset="1" stop-color="#F08C36"/>
</linearGradient>
<linearGradient id="paint78_linear" x1="813.624" y1="500.331" x2="2253.12" y2="500.331" gradientUnits="userSpaceOnUse">
<stop stop-color="#F08C36"/>
<stop offset="0.500609" stop-color="#F0AE36"/>
<stop offset="1" stop-color="#F08C36"/>
</linearGradient>
<linearGradient id="paint79_linear" x1="813.624" y1="500.331" x2="2253.12" y2="500.331" gradientUnits="userSpaceOnUse">
<stop stop-color="#F08C36"/>
<stop offset="0.500609" stop-color="#F0AE36"/>
<stop offset="1" stop-color="#F08C36"/>
</linearGradient>
<linearGradient id="paint80_linear" x1="813.624" y1="500.331" x2="2253.12" y2="500.331" gradientUnits="userSpaceOnUse">
<stop stop-color="#F08C36"/>
<stop offset="0.500609" stop-color="#F0AE36"/>
<stop offset="1" stop-color="#F08C36"/>
</linearGradient>
<linearGradient id="paint81_linear" x1="813.624" y1="500.331" x2="2253.12" y2="500.331" gradientUnits="userSpaceOnUse">
<stop stop-color="#F08C36"/>
<stop offset="0.500609" stop-color="#F0AE36"/>
<stop offset="1" stop-color="#F08C36"/>
</linearGradient>
<linearGradient id="paint82_linear" x1="813.624" y1="500.331" x2="2253.12" y2="500.331" gradientUnits="userSpaceOnUse">
<stop stop-color="#F08C36"/>
<stop offset="0.500609" stop-color="#F0AE36"/>
<stop offset="1" stop-color="#F08C36"/>
</linearGradient>
<linearGradient id="paint83_linear" x1="813.624" y1="500.331" x2="2253.12" y2="500.331" gradientUnits="userSpaceOnUse">
<stop stop-color="#F08C36"/>
<stop offset="0.500609" stop-color="#F0AE36"/>
<stop offset="1" stop-color="#F08C36"/>
</linearGradient>
<linearGradient id="paint84_linear" x1="813.624" y1="500.331" x2="2253.12" y2="500.331" gradientUnits="userSpaceOnUse">
<stop stop-color="#F08C36"/>
<stop offset="0.500609" stop-color="#F0AE36"/>
<stop offset="1" stop-color="#F08C36"/>
</linearGradient>
<linearGradient id="paint85_linear" x1="813.624" y1="500.331" x2="2253.12" y2="500.331" gradientUnits="userSpaceOnUse">
<stop stop-color="#F08C36"/>
<stop offset="0.500609" stop-color="#F0AE36"/>
<stop offset="1" stop-color="#F08C36"/>
</linearGradient>
<linearGradient id="paint86_linear" x1="813.624" y1="500.331" x2="2253.12" y2="500.331" gradientUnits="userSpaceOnUse">
<stop stop-color="#F08C36"/>
<stop offset="0.500609" stop-color="#F0AE36"/>
<stop offset="1" stop-color="#F08C36"/>
</linearGradient>
<linearGradient id="paint87_linear" x1="813.624" y1="500.331" x2="2253.12" y2="500.331" gradientUnits="userSpaceOnUse">
<stop stop-color="#F08C36"/>
<stop offset="0.500609" stop-color="#F0AE36"/>
<stop offset="1" stop-color="#F08C36"/>
</linearGradient>
<linearGradient id="paint88_linear" x1="813.624" y1="500.331" x2="2253.12" y2="500.331" gradientUnits="userSpaceOnUse">
<stop stop-color="#F08C36"/>
<stop offset="0.500609" stop-color="#F0AE36"/>
<stop offset="1" stop-color="#F08C36"/>
</linearGradient>
<linearGradient id="paint89_linear" x1="813.624" y1="500.331" x2="2253.12" y2="500.331" gradientUnits="userSpaceOnUse">
<stop stop-color="#F08C36"/>
<stop offset="0.500609" stop-color="#F0AE36"/>
<stop offset="1" stop-color="#F08C36"/>
</linearGradient>
<linearGradient id="paint90_linear" x1="813.624" y1="500.331" x2="2253.12" y2="500.331" gradientUnits="userSpaceOnUse">
<stop stop-color="#F08C36"/>
<stop offset="0.500609" stop-color="#F0AE36"/>
<stop offset="1" stop-color="#F08C36"/>
</linearGradient>
<linearGradient id="paint91_linear" x1="813.624" y1="500.331" x2="2253.12" y2="500.331" gradientUnits="userSpaceOnUse">
<stop stop-color="#F08C36"/>
<stop offset="0.500609" stop-color="#F0AE36"/>
<stop offset="1" stop-color="#F08C36"/>
</linearGradient>
<linearGradient id="paint92_linear" x1="813.624" y1="500.331" x2="2253.12" y2="500.331" gradientUnits="userSpaceOnUse">
<stop stop-color="#F08C36"/>
<stop offset="0.500609" stop-color="#F0AE36"/>
<stop offset="1" stop-color="#F08C36"/>
</linearGradient>
<linearGradient id="paint93_linear" x1="813.624" y1="500.331" x2="2253.12" y2="500.331" gradientUnits="userSpaceOnUse">
<stop stop-color="#F08C36"/>
<stop offset="0.500609" stop-color="#F0AE36"/>
<stop offset="1" stop-color="#F08C36"/>
</linearGradient>
<linearGradient id="paint94_linear" x1="813.624" y1="500.331" x2="2253.12" y2="500.331" gradientUnits="userSpaceOnUse">
<stop stop-color="#F08C36"/>
<stop offset="0.500609" stop-color="#F0AE36"/>
<stop offset="1" stop-color="#F08C36"/>
</linearGradient>
<linearGradient id="paint95_linear" x1="813.624" y1="500.331" x2="2253.12" y2="500.331" gradientUnits="userSpaceOnUse">
<stop stop-color="#F08C36"/>
<stop offset="0.500609" stop-color="#F0AE36"/>
<stop offset="1" stop-color="#F08C36"/>
</linearGradient>
<linearGradient id="paint96_linear" x1="813.624" y1="500.331" x2="2253.12" y2="500.331" gradientUnits="userSpaceOnUse">
<stop stop-color="#F08C36"/>
<stop offset="0.500609" stop-color="#F0AE36"/>
<stop offset="1" stop-color="#F08C36"/>
</linearGradient>
<linearGradient id="paint97_linear" x1="813.624" y1="500.331" x2="2253.12" y2="500.331" gradientUnits="userSpaceOnUse">
<stop stop-color="#F08C36"/>
<stop offset="0.500609" stop-color="#F0AE36"/>
<stop offset="1" stop-color="#F08C36"/>
</linearGradient>
<linearGradient id="paint98_linear" x1="813.624" y1="500.331" x2="2253.12" y2="500.331" gradientUnits="userSpaceOnUse">
<stop stop-color="#F08C36"/>
<stop offset="0.500609" stop-color="#F0AE36"/>
<stop offset="1" stop-color="#F08C36"/>
</linearGradient>
<linearGradient id="paint99_linear" x1="813.624" y1="500.331" x2="2253.12" y2="500.331" gradientUnits="userSpaceOnUse">
<stop stop-color="#F08C36"/>
<stop offset="0.500609" stop-color="#F0AE36"/>
<stop offset="1" stop-color="#F08C36"/>
</linearGradient>
<linearGradient id="paint100_linear" x1="813.624" y1="500.331" x2="2253.12" y2="500.331" gradientUnits="userSpaceOnUse">
<stop stop-color="#F08C36"/>
<stop offset="0.500609" stop-color="#F0AE36"/>
<stop offset="1" stop-color="#F08C36"/>
</linearGradient>
<linearGradient id="paint101_linear" x1="813.624" y1="500.331" x2="2253.12" y2="500.331" gradientUnits="userSpaceOnUse">
<stop stop-color="#F08C36"/>
<stop offset="0.500609" stop-color="#F0AE36"/>
<stop offset="1" stop-color="#F08C36"/>
</linearGradient>
<linearGradient id="paint102_linear" x1="813.624" y1="500.331" x2="2253.12" y2="500.331" gradientUnits="userSpaceOnUse">
<stop stop-color="#F08C36"/>
<stop offset="0.500609" stop-color="#F0AE36"/>
<stop offset="1" stop-color="#F08C36"/>
</linearGradient>
<linearGradient id="paint103_linear" x1="813.624" y1="500.331" x2="2253.12" y2="500.331" gradientUnits="userSpaceOnUse">
<stop stop-color="#F08C36"/>
<stop offset="0.500609" stop-color="#F0AE36"/>
<stop offset="1" stop-color="#F08C36"/>
</linearGradient>
<linearGradient id="paint104_linear" x1="813.624" y1="500.331" x2="2253.12" y2="500.331" gradientUnits="userSpaceOnUse">
<stop stop-color="#F08C36"/>
<stop offset="0.500609" stop-color="#F0AE36"/>
<stop offset="1" stop-color="#F08C36"/>
</linearGradient>
<linearGradient id="paint105_linear" x1="813.624" y1="500.331" x2="2253.12" y2="500.331" gradientUnits="userSpaceOnUse">
<stop stop-color="#F08C36"/>
<stop offset="0.500609" stop-color="#F0AE36"/>
<stop offset="1" stop-color="#F08C36"/>
</linearGradient>
<linearGradient id="paint106_linear" x1="813.624" y1="500.331" x2="2253.12" y2="500.331" gradientUnits="userSpaceOnUse">
<stop stop-color="#F08C36"/>
<stop offset="0.500609" stop-color="#F0AE36"/>
<stop offset="1" stop-color="#F08C36"/>
</linearGradient>
<linearGradient id="paint107_linear" x1="813.624" y1="500.331" x2="2253.12" y2="500.331" gradientUnits="userSpaceOnUse">
<stop stop-color="#F08C36"/>
<stop offset="0.500609" stop-color="#F0AE36"/>
<stop offset="1" stop-color="#F08C36"/>
</linearGradient>
<linearGradient id="paint108_linear" x1="813.624" y1="500.331" x2="2253.12" y2="500.331" gradientUnits="userSpaceOnUse">
<stop stop-color="#F08C36"/>
<stop offset="0.500609" stop-color="#F0AE36"/>
<stop offset="1" stop-color="#F08C36"/>
</linearGradient>
<linearGradient id="paint109_linear" x1="813.624" y1="500.331" x2="2253.12" y2="500.331" gradientUnits="userSpaceOnUse">
<stop stop-color="#F08C36"/>
<stop offset="0.500609" stop-color="#F0AE36"/>
<stop offset="1" stop-color="#F08C36"/>
</linearGradient>
<linearGradient id="paint110_linear" x1="813.624" y1="500.331" x2="2253.12" y2="500.331" gradientUnits="userSpaceOnUse">
<stop stop-color="#F08C36"/>
<stop offset="0.500609" stop-color="#F0AE36"/>
<stop offset="1" stop-color="#F08C36"/>
</linearGradient>
<linearGradient id="paint111_linear" x1="813.624" y1="500.331" x2="2253.12" y2="500.331" gradientUnits="userSpaceOnUse">
<stop stop-color="#F08C36"/>
<stop offset="0.500609" stop-color="#F0AE36"/>
<stop offset="1" stop-color="#F08C36"/>
</linearGradient>
<linearGradient id="paint112_linear" x1="813.624" y1="500.331" x2="2253.12" y2="500.331" gradientUnits="userSpaceOnUse">
<stop stop-color="#F08C36"/>
<stop offset="0.500609" stop-color="#F0AE36"/>
<stop offset="1" stop-color="#F08C36"/>
</linearGradient>
<linearGradient id="paint113_linear" x1="813.624" y1="500.331" x2="2253.12" y2="500.331" gradientUnits="userSpaceOnUse">
<stop stop-color="#F08C36"/>
<stop offset="0.500609" stop-color="#F0AE36"/>
<stop offset="1" stop-color="#F08C36"/>
</linearGradient>
<linearGradient id="paint114_linear" x1="813.624" y1="500.331" x2="2253.12" y2="500.331" gradientUnits="userSpaceOnUse">
<stop stop-color="#F08C36"/>
<stop offset="0.500609" stop-color="#F0AE36"/>
<stop offset="1" stop-color="#F08C36"/>
</linearGradient>
<linearGradient id="paint115_linear" x1="813.624" y1="500.331" x2="2253.12" y2="500.331" gradientUnits="userSpaceOnUse">
<stop stop-color="#F08C36"/>
<stop offset="0.500609" stop-color="#F0AE36"/>
<stop offset="1" stop-color="#F08C36"/>
</linearGradient>
<linearGradient id="paint116_linear" x1="813.624" y1="500.331" x2="2253.12" y2="500.331" gradientUnits="userSpaceOnUse">
<stop stop-color="#F08C36"/>
<stop offset="0.500609" stop-color="#F0AE36"/>
<stop offset="1" stop-color="#F08C36"/>
</linearGradient>
<linearGradient id="paint117_linear" x1="813.624" y1="500.331" x2="2253.12" y2="500.331" gradientUnits="userSpaceOnUse">
<stop stop-color="#F08C36"/>
<stop offset="0.500609" stop-color="#F0AE36"/>
<stop offset="1" stop-color="#F08C36"/>
</linearGradient>
<linearGradient id="paint118_linear" x1="813.624" y1="500.331" x2="2253.12" y2="500.331" gradientUnits="userSpaceOnUse">
<stop stop-color="#F08C36"/>
<stop offset="0.500609" stop-color="#F0AE36"/>
<stop offset="1" stop-color="#F08C36"/>
</linearGradient>
<linearGradient id="paint119_linear" x1="813.624" y1="500.331" x2="2253.12" y2="500.331" gradientUnits="userSpaceOnUse">
<stop stop-color="#F08C36"/>
<stop offset="0.500609" stop-color="#F0AE36"/>
<stop offset="1" stop-color="#F08C36"/>
</linearGradient>
</defs>
</svg>
